PathFileType	4	(X/Y/Z)	D:\Share\Shared_Data\Ergonomics\Sit To Stand Pertubation\S1\Unperturbed_NoHarness.trc
DataRate	CameraRate	NumFrames	NumMarkers	Units	OrigDataRate	OrigDataStartFrame	OrigNumFrames	
100	100	19	18	m	100	761	281
Frame#	Time	R_Thigh_Med			R_ASIS			R_Pelvis			V_Sacral			L_Pelvis			L_ASIS			Clavical			R_Acromium			L_Acromium			Sternum			Torso			R_Thigh_Lat			R_Thigh			R_Shank_Med			R_Shank_Lat			R_Shank			R_Heel			R_Toe			
		X1	Y1	Z1	X2	Y2	Z2	X3	Y3	Z3	X4	Y4	Z4	X5	Y5	Z5	X6	Y6	Z6	X7	Y7	Z7	X8	Y8	Z8	X9	Y9	Z9	X10	Y10	Z10	X11	Y11	Z11	X12	Y12	Z12	X13	Y13	Z13	X14	Y14	Z14	X15	Y15	Z15	X16	Y16	Z16	X17	Y17	Z17	X18	Y18	Z18	

761	7.6	0.3816857	0.39991901	0.0028947806	0.16596378	0.62009912	0.092922592	0.090822205	0.66373065	0.12094635	-0.035469952	0.63719983	-0.011474517	0.094116806	0.66246564	-0.14588872	0.18693282	0.62508478	-0.10852691	0.42657907	0.82763971	-0.0092271671	0.43033096	0.93050549	0.13352158	0.36598181	0.93594641	-0.19629066	0.41467307	0.85382404	0.08859301	0.42333023	0.84285474	-0.061944862	0.38910922	0.41929642	0.12364293	0.28041415	0.55512067	0.078716309	0.3201579	0.091110321	0.066586891	0.29673062	0.09941053	0.14663939	0.35568588	0.30327667	0.14731844	0.24329503	0.031463991	0.095548347	0.44975449	0.046471024	0.11627708
762	7.61	0.3839603	0.39937924	0.0024534016	0.16993486	0.6220954	0.093165161	0.095112434	0.66609863	0.12155126	-0.031497009	0.64030988	-0.010711567	0.097764198	0.66471759	-0.14549438	0.19034346	0.62699042	-0.10822431	0.43007159	0.82982983	-0.009336318	0.43422705	0.93272968	0.13349208	0.36941611	0.93780707	-0.19640794	0.41866495	0.85590753	0.088532455	0.42715747	0.84491064	-0.062179432	0.39175439	0.41877383	0.12320377	0.28419006	0.55567657	0.078576637	0.32035745	0.091003601	0.066442657	0.2970957	0.099453323	0.14655005	0.35742136	0.30291269	0.14700168	0.24333034	0.031542574	0.095547432	0.4496897	0.046638348	0.11634254
763	7.62	0.38616617	0.39885669	0.0021108935	0.1738981	0.62424963	0.093402901	0.099392036	0.66865497	0.12221539	-0.027514393	0.64367505	-0.0098527393	0.10139633	0.66712579	-0.14510326	0.19377402	0.62907013	-0.10791653	0.43354987	0.83234363	-0.0094070616	0.43790533	0.93524731	0.13361578	0.37265564	0.9399566	-0.19652052	0.42256595	0.85828967	0.088528557	0.43085883	0.84728864	-0.06241608	0.39431924	0.41826541	0.12285015	0.28797281	0.55629279	0.078479248	0.32054239	0.09090963	0.066323158	0.29744559	0.09948407	0.14648773	0.35908575	0.30254089	0.14675764	0.24336191	0.031621061	0.0955504	0.44961703	0.046830372	0.11641949
764	7.63	0.38829797	0.39835114	0.0018555062	0.17784985	0.62655377	0.093636978	0.10365207	0.67137573	0.1229217	-0.023526089	0.64726154	-0.0089219027	0.10501553	0.66968152	-0.14472079	0.19721709	0.63130328	-0.10760632	0.43699619	0.83516394	-0.0094497967	0.44138712	0.93803467	0.13386275	0.37572034	0.94238788	-0.19662379	0.42636206	0.86095703	0.08856839	0.43442908	0.84997205	-0.062649345	0.39679944	0.41776852	0.12257781	0.29176184	0.55695959	0.078430855	0.3207157	0.090825897	0.066223846	0.29777936	0.09950029	0.1464474	0.36067862	0.30216153	0.14657997	0.24339088	0.031699142	0.095555412	0.44956067	0.046944618	0.11647858
765	7.64	0.3903559	0.39786496	0.0016733918	0.18178531	0.62899817	0.093869095	0.10788826	0.67424127	0.12366121	-0.019534924	0.65107129	-0.0079100022	0.10862349	0.67237476	-0.1443522	0.20066408	0.63368921	-0.10728808	0.44038669	0.83827673	-0.0094825706	0.44468857	0.94107739	0.13416914	0.37862656	0.94509534	-0.19671494	0.43003625	0.86390326	0.088626389	0.43786893	0.8529447	-0.062873535	0.39919461	0.41728271	0.12237883	0.29554752	0.55766681	0.078436432	0.32088156	0.090749802	0.066140106	0.29809586	0.09950238	0.14642259	0.36220135	0.30177704	0.14645901	0.24341873	0.031777187	0.095561394	0.44954037	0.046899078	0.11649664
766	7.65	0.39234305	0.39740192	0.0015505528	0.18569978	0.63157251	0.094100563	0.1121006	0.67722504	0.12441969	-0.015542046	0.65516278	-0.0067567773	0.11222181	0.67519507	-0.14400134	0.20410889	0.63622662	-0.10694997	0.44369836	0.84166589	-0.0095182228	0.44782657	0.94436835	0.13448167	0.38138538	0.94807233	-0.19679469	0.43357614	0.86712402	0.088682457	0.44118469	0.8561911	-0.063083546	0.4015072	0.4168103	0.12224161	0.29931345	0.55840558	0.07849781	0.32104437	0.090679405	0.066068199	0.29839493	0.099493393	0.14640707	0.36365649	0.30139197	0.14638405	0.24344707	0.031855904	0.095568153	0.44955301	0.046712078	0.11647909
767	7.66	0.39426294	0.39696509	0.0014739522	0.18959091	0.63426672	0.094331718	0.11629114	0.68028998	0.12517127	-0.011547192	0.65957574	-0.0054182835	0.11581285	0.67813214	-0.14367059	0.20754376	0.63890533	-0.10658992	0.44691513	0.84531	-0.0095621309	0.45081766	0.94790417	0.13476802	0.3840029	0.95130841	-0.19686655	0.43697852	0.87061328	0.088725578	0.44438458	0.85969678	-0.063276283	0.40374023	0.41635541	0.12215257	0.30304514	0.55917163	0.078613503	0.32120718	0.090614067	0.066005585	0.29867725	0.099477638	0.14639624	0.36504642	0.30101163	0.14634656	0.24347707	0.031936079	0.095575882	0.44957303	0.046500286	0.11645863
768	7.67	0.39611725	0.39655548	0.0014324614	0.19345882	0.63706982	0.09456237	0.12046091	0.6834024	0.12589236	-0.0075494032	0.66424353	-0.0039466155	0.11939977	0.68117554	-0.14336192	0.2109624	0.64171906	-0.10622572	0.45003568	0.84918005	-0.009614501	0.45367346	0.95168036	0.13501321	0.38648108	0.95478925	-0.19693413	0.44025125	0.87436047	0.088751549	0.44747668	0.8634491	-0.063451447	0.40589603	0.41592188	0.1220985	0.30673544	0.559966	0.078779106	0.321371	0.090554268	0.065950859	0.29894394	0.099459122	0.14638792	0.36637378	0.30064093	0.146341	0.24350941	0.032018909	0.095585052	0.44957266	0.046394131	0.11647087
769	7.68	0.39790616	0.39617224	0.0014177065	0.19730431	0.63996997	0.094791977	0.12460818	0.68654272	0.12657122	-0.0035477645	0.66901196	-0.0024718118	0.12298583	0.68431494	-0.14307761	0.21436346	0.64466736	-0.1058871	0.45307602	0.85323883	-0.0096718187	0.45639969	0.95568976	0.13521535	0.38882019	0.95849591	-0.19699934	0.44341068	0.87835101	0.088761253	0.45047006	0.86743591	-0.063611256	0.40797681	0.4155126	0.12206829	0.31038425	0.56079382	0.078987778	0.32153476	0.090501137	0.065903442	0.29919659	0.099440666	0.14638208	0.3676409	0.30028403	0.1463627	0.24354419	0.032106339	0.095596504	0.44953671	0.046472088	0.11653604
770	7.69	0.39963037	0.39581332	0.0014238507	0.20112825	0.64295581	0.095018684	0.12872815	0.689703	0.12720509	0.00045762455	0.67373486	-0.0011131318	0.12657441	0.68754041	-0.14281953	0.21774649	0.64774103	-0.10559688	0.45606049	0.8574411	-0.0097275028	0.45899747	0.95992346	0.13538037	0.39102011	0.96240729	-0.19706194	0.44647217	0.88256989	0.088759415	0.45337241	0.8716463	-0.063759708	0.40998572	0.41512906	0.12205428	0.31399588	0.56166107	0.079231644	0.32169565	0.090455772	0.065863281	0.29943695	0.099423927	0.14637979	0.36885031	0.2999437	0.14640656	0.2435809	0.032200054	0.095610939	0.44946625	0.04674379	0.11665477
771	7.7	0.40129153	0.39547559	0.0014465817	0.2049315	0.6460166	0.095238571	0.13281351	0.69288232	0.12779626	0.0044641795	0.67832794	7.1742371e-05	0.13016847	0.69084167	-0.14258865	0.22111353	0.65092047	-0.10535858	0.45901309	0.86173645	-0.0097728682	0.46146527	0.96437115	0.13551721	0.39308099	0.9665025	-0.19712018	0.44944302	0.88700409	0.088752747	0.45618726	0.87606885	-0.063901501	0.41192719	0.41477213	0.1220524	0.31757849	0.56257275	0.079504471	0.32185016	0.090418686	0.065830475	0.29966611	0.099409821	0.14638228	0.37000464	0.2996203	0.14646786	0.24361845	0.032299519	0.095627556	0.44937775	0.047144535	0.11680716
772	7.71	0.40289218	0.39515622	0.0014830968	0.20871513	0.64913885	0.095445839	0.13685574	0.69608392	0.12835013	0.0084660301	0.68275916	0.0010736169	0.13376971	0.69420801	-0.14238507	0.22447368	0.65419147	-0.10515823	0.46195569	0.86607617	-0.0097992163	0.4638006	0.969021	0.13563452	0.39500421	0.97076288	-0.19717252	0.45232321	0.89164209	0.088747566	0.45891537	0.88069269	-0.064040619	0.41380682	0.41444275	0.12206095	0.32114389	0.56352924	0.07980513	0.32199527	0.090389725	0.065804794	0.29988486	0.099398438	0.14639027	0.37110678	0.29931195	0.14654369	0.24365543	0.032401478	0.095643791	0.4492995	0.047539055	0.11695477
773	7.72	0.4044371	0.39485291	0.0015334661	0.21248022	0.65230353	0.095633087	0.1408472	0.69931219	0.12887312	0.012456099	0.6870282	0.0019035156	0.13737801	0.69762823	-0.14220844	0.22784039	0.65755121	-0.10497395	0.46490363	0.87042694	-0.0098005333	0.46600171	0.97385968	0.13574004	0.39679361	0.97517365	-0.19721983	0.45510855	0.89647308	0.08874836	0.46155652	0.88550635	-0.064179131	0.4156311	0.4141424	0.12207965	0.32470593	0.5645224	0.080140594	0.32212961	0.090368042	0.065785355	0.30009384	0.099389168	0.14640405	0.37215887	0.29901498	0.1466326	0.24369067	0.03250198	0.095656868	0.44926117	0.04776688	0.11705393
774	7.73	0.40593295	0.3945643	0.0016016827	0.21622743	0.65548376	0.095791542	0.14478246	0.70257092	0.12937126	0.016428905	0.69115607	0.00257705	0.14099187	0.7010907	-0.14205937	0.23122546	0.6609986	-0.10478639	0.46785239	0.87479358	-0.0097763367	0.46806964	0.97887244	0.13584106	0.39845547	0.97972394	-0.19726497	0.45779288	0.90148596	0.08875827	0.46410791	0.8904986	-0.064316635	0.41740588	0.41387186	0.12211035	0.32827753	0.56553162	0.080526642	0.32225363	0.090352394	0.065770935	0.30029346	0.09938102	0.1464231	0.37316144	0.29872571	0.14673375	0.24372374	0.032598717	0.095665451	0.44927875	0.047718128	0.11707653
775	7.74	0.40738446	0.39428885	0.0016946069	0.21995663	0.65864941	0.095911354	0.1486579	0.70586145	0.12984851	0.020380245	0.69517798	0.0031098504	0.14460976	0.70458411	-0.14194057	0.23463586	0.66452295	-0.10458559	0.47076541	0.87923999	-0.0097342691	0.47000931	0.98404602	0.13594485	0.39999707	0.98440564	-0.19731065	0.46037061	0.90666833	0.088780167	0.46656363	0.89565826	-0.064450493	0.41913171	0.41362805	0.12215816	0.33186584	0.56652008	0.080984482	0.32236911	0.090341484	0.065760651	0.30048306	0.099373024	0.14644647	0.37411243	0.29844141	0.14684631	0.2437545	0.032691036	0.095669914	0.44934592	0.047384907	0.11702259
776	7.75	0.40879178	0.39402454	0.0018189483	0.22366653	0.66177399	0.095983086	0.15247211	0.70918231	0.13030563	0.02430637	0.69913037	0.003515022	0.14823131	0.70809906	-0.14185683	0.23807315	0.66810419	-0.10437141	0.47357715	0.88388281	-0.0096890726	0.47182724	0.98937012	0.1360573	0.40142581	0.98921143	-0.19735818	0.46283862	0.91200714	0.088816864	0.46891608	0.90097443	-0.064577026	0.42080347	0.41340326	0.12223052	0.3354657	0.56743286	0.081532639	0.32247794	0.090334473	0.065754349	0.30066138	0.099364189	0.14647331	0.37500842	0.29816116	0.14696944	0.24378297	0.03277874	0.095671585	0.4494361	0.046862206	0.11691862
777	7.76	0.41015247	0.39377069	0.0019787883	0.22735423	0.66484473	0.096001442	0.15622675	0.7125304	0.13074092	0.028205532	0.70303503	0.0037975514	0.15185767	0.71162891	-0.141813	0.24153551	0.67172302	-0.10415012	0.47621722	0.88884387	-0.0096560583	0.47352634	0.99483624	0.1361817	0.40274869	0.99413245	-0.19740842	0.46519556	0.91748901	0.088870773	0.47115878	0.90643616	-0.064692596	0.4224133	0.4131882	0.12233438	0.33905511	0.56819873	0.082174049	0.32258203	0.090331085	0.065752464	0.3008269	0.099353577	0.1465033	0.37584686	0.29788528	0.14710323	0.24380907	0.032861572	0.095672089	0.44951352	0.046296661	0.11680299
778	7.77	0.4114639	0.39352878	0.0021753879	0.23101378	0.66787842	0.095971771	0.15992647	0.71590222	0.13115242	0.032078979	0.70688879	0.003948859	0.1554894	0.71516956	-0.14181174	0.24501942	0.6753681	-0.10393137	0.4786373	0.8942002	-0.009644516	0.47510422	1.0004362	0.1363188	0.40397223	0.99915723	-0.19746458	0.46744162	0.92310052	0.088943275	0.4732897	0.91203113	-0.064793968	0.42395471	0.41297623	0.12247362	0.34259525	0.56874152	0.08287825	0.32268283	0.09033149	0.065755798	0.30097824	0.099340599	0.14653612	0.37662708	0.29761554	0.14724956	0.24383298	0.032939377	0.09567289	0.44954868	0.045809059	0.11670579
779	7.78	0.41272443	0.39330176	0.0024083369	0.23463531	0.67092566	0.095913826	0.16357744	0.71929578	0.13153955	0.03592981	0.71066492	0.0039457333	0.15912463	0.71871893	-0.14185269	0.24851959	0.67903461	-0.10372592	0.48082022	0.89997058	-0.0096563282	0.47655551	1.0061593	0.13646823	0.40510239	1.0042712	-0.19753354	0.4695787	0.92882758	0.089034828	0.47531216	0.91774609	-0.064878685	0.42542416	0.4127655	0.12264889	0.34603342	0.56899939	0.083560219	0.32278125	0.090336098	0.065765137	0.30111368	0.099325157	0.14657146	0.37735083	0.297354	0.14741272	0.24385512	0.033012329	0.095674942	0.44952838	0.045449657	0.1166375
